<svg height="496pt" viewBox="0 0 496 496" width="496pt" xmlns="http://www.w3.org/2000/svg"><path d="m8 432c30.960938 0 56 25.039062 56 56-15.519531 0-29.441406-6.238281-39.601562-16.398438-10.160157-10.160156-16.398438-24.082031-16.398438-39.601562zm0 0" fill="#37bc9b"/><path d="m216 336-152 152c0-30.960938-25.039062-56-56-56l152-152zm0 0" fill="#48cfad"/><path d="m196 268 44 44-24 24-56-56 24-24zm0 0" fill="#ffeaa7"/><path d="m163.039062 332.960938c3.039063 3.039062 4.960938 7.359374 4.960938 12 0 4.480468-1.761719 8.800781-4.960938 12l-22.078124 22.078124c-3.199219 3.199219-7.519532 4.960938-12 4.960938-4.640626 0-8.960938-1.921875-12-4.960938-3.039063-3.039062-4.960938-7.359374-4.960938-12 0-4.480468 1.761719-8.800781 4.960938-12l22.078124-22.078124c3.199219-3.199219 7.519532-4.960938 12-4.960938 4.640626 0 8.960938 1.921875 12 4.960938zm0 0" fill="#ffeaa7"/><path d="m259.519531 268.480469-31.519531 31.519531-32-32 31.519531-31.519531c8.800781 12.320312 19.679688 23.199219 32 32zm0 0" fill="#969faa"/><path d="m344 8c79.519531 0 144 64.480469 144 144s-64.480469 144-144 144c-31.601562 0-60.800781-10.160156-84.480469-27.519531-12.320312-8.800781-23.199219-19.679688-32-32-17.359375-23.679688-27.519531-52.878907-27.519531-84.480469 0-79.519531 64.480469-144 144-144zm0 0" fill="#ccd1d9"/><path d="m456 152c0 61.855469-50.144531 112-112 112s-112-50.144531-112-112 50.144531-112 112-112 112 50.144531 112 112zm0 0" fill="#69d6f4"/><path d="m344 0c-83.816406 0-152 68.183594-152 152 0 30.847656 9.296875 59.542969 25.152344 83.535156l-21.152344 21.152344-12-12-184 184v3.3125c0 35.289062 28.710938 64 64 64h3.3125l184-184-12-12 21.152344-21.152344c23.992187 15.855469 52.6875 25.152344 83.535156 25.152344 83.816406 0 152-68.183594 152-152s-68.183594-152-152-152zm-319.039062 426.351562 135.039062-135.039062 44.6875 44.6875-135.039062 135.039062c-5.96875-21.664062-23.023438-38.71875-44.6875-44.6875zm-7.945313 14.527344c19.25 3.671875 34.441406 18.863282 38.113281 38.113282-19.320312-3.65625-34.464844-18.800782-38.113281-38.113282zm198.984375-116.191406-44.6875-44.6875 12.6875-12.6875 44.6875 44.6875zm12-36-20.6875-20.6875 19.40625-19.40625c6.21875 7.535156 13.152344 14.460938 20.6875 20.6875zm116-.6875c-74.992188 0-136-61.007812-136-136s61.007812-136 136-136 136 61.007812 136 136-61.007812 136-136 136zm0 0"/><path d="m410.007812 180.800781 14.664063 6.40625c2.464844-5.648437 4.335937-11.574219 5.558594-17.613281l-15.679688-3.179688c-.992187 4.929688-2.527343 9.769532-4.542969 14.386719zm0 0"/><path d="m432 152c0-48.519531-39.480469-88-88-88v16c39.695312 0 72 32.304688 72 72zm0 0"/><path d="m344 32c-66.167969 0-120 53.832031-120 120s53.832031 120 120 120 120-53.832031 120-120-53.832031-120-120-120zm0 224c-57.34375 0-104-46.65625-104-104s46.65625-104 104-104 104 46.65625 104 104-46.65625 104-104 104zm0 0"/><path d="m151.03125 320c-6.671875 0-12.941406 2.601562-17.65625 7.3125l-22.0625 22.0625c-4.710938 4.714844-7.3125 10.984375-7.3125 17.65625 0 13.769531 11.199219 24.96875 24.96875 24.96875 6.671875 0 12.941406-2.601562 17.65625-7.3125l22.0625-22.0625c4.710938-4.714844 7.3125-10.984375 7.3125-17.65625 0-13.769531-11.199219-24.96875-24.96875-24.96875zm6.34375 31.3125-22.0625 22.0625c-1.695312 1.6875-3.945312 2.625-6.34375 2.625-4.945312 0-8.96875-4.023438-8.96875-8.96875 0-2.398438.9375-4.648438 2.625-6.34375l22.0625-22.0625c1.695312-1.6875 3.945312-2.625 6.34375-2.625 4.945312 0 8.96875 4.023438 8.96875 8.96875 0 2.398438-.9375 4.648438-2.625 6.34375zm0 0"/><path d="m50.34375 421.65625 11.3125-11.3125 24 24-11.3125 11.3125zm0 0"/><path d="m74.34375 397.65625 11.3125-11.3125 24 24-11.3125 11.3125zm0 0"/></svg>