<svg id="Layer_3" enable-background="new 0 0 64 64" height="512" viewBox="0 0 64 64" width="512" xmlns="http://www.w3.org/2000/svg"><path d="m57 1h-44c-3.859 0-7 3.14-7 7v48c0 3.859 3.141 7 7 7h44c.553 0 1-.447 1-1v-12-48c0-.552-.447-1-1-1zm-49 7c0-2.757 2.243-5 5-5h43v46h-43c-1.958 0-3.728.81-5 2.111zm48 53h-43c-2.757 0-5-2.243-5-5s2.243-5 5-5h43z"/><path d="m27 34.125v11.875c0 .553.447 1 1 1h8c.553 0 1-.447 1-1v-11.875c5.817-2.066 10-7.609 10-14.125 0-8.271-6.729-15-15-15s-15 6.729-15 15c0 6.516 4.183 12.059 10 14.125zm2.318-18.125h5.364l1.387 3.699-4.069 3.051-4.069-3.051zm-3.054 2.448-3.264-2.448h4.182zm7.668-4.448h-3.864l1.932-5.152zm2.886 2h4.182l-3.264 2.448zm-.018 5.649 2.174 5.799-5.244-3.496zm-6.53 2.303-5.244 3.496 2.174-5.799zm1.73 1.25 7.781 5.188c-2.172 1.631-4.861 2.61-7.781 2.61s-5.609-.979-7.781-2.611zm3 19.798h-2v-8h-2v8h-2v-10.302c.97.197 1.973.302 3 .302s2.03-.105 3-.302zm6.596-16.26-3.128-8.341 5.889-4.417c.413 1.266.643 2.615.643 4.018 0 3.367-1.297 6.429-3.404 8.74zm1.925-14.74h-7.453l-2.591-6.91c4.373.498 8.089 3.171 10.044 6.91zm-12.998-6.91-2.591 6.91h-7.453c1.955-3.739 5.671-6.412 10.044-6.91zm-10.88 8.892 5.889 4.417-3.128 8.341c-2.107-2.311-3.404-5.373-3.404-8.74 0-1.403.23-2.752.643-4.018z"/><path d="m10 55h44v2h-44z"/></svg>